<mxfile host="app.diagrams.net" modified="2024-01-23T11:12:05.904Z" agent="Mozilla/5.0 (Windows NT 10.0; Win64; x64) AppleWebKit/537.36 (KHTML, like Gecko) Chrome/120.0.0.0 Safari/537.36" version="22.1.21" etag="FZrJ5iopqQkorYiuR0Hz" type="github">
  <diagram name="Page-1" id="89mk3IHFsywrB6TEHLdy">
    <mxGraphModel>
      <root>
        <mxCell id="0" />
        <mxCell id="1" parent="0" />
      </root>
    </mxGraphModel>
  </diagram>
</mxfile>
